<?xml version="1.0" encoding="utf-8"?>
<!-- Generator: Adobe Illustrator 23.0.1, SVG Export Plug-In . SVG Version: 6.00 Build 0)  -->
<svg version="1.1" id="cart-summary" xmlns="http://www.w3.org/2000/svg" xmlns:xlink="http://www.w3.org/1999/xlink" x="0px"
	 y="0px" viewBox="0 0 2600.8 1838" style="enable-background:new 0 0 2600.8 1838;" xml:space="preserve">
<style type="text/css">
	.st0{display:none;fill:#212F3F;}
	.st1{fill:#E8E8E8;}
	.st2{fill:#F4F4F4;}
	.st3{fill:none;stroke:#FFFFFF;stroke-width:8;stroke-miterlimit:10;}
	.st4{display:none;fill:#FFFFFF;}
	.st5{fill:#363636;}
	.st6{font-family:'Roboto-Black';}
	.st7{font-size:35px;}
	.st8{display:none;fill:none;stroke:#DBDBDB;stroke-width:2;stroke-miterlimit:10;}
	.st9{fill:none;stroke:#DBDBDB;stroke-width:2;stroke-miterlimit:10;}
	.st10{fill:#B5B5B5;}
	.st11{font-family:'Roboto-Medium';}
	.st12{font-size:30px;}
	.st13{font-family:'Roboto-Regular';}
	.st14{font-size:22px;}
	.st15{fill:#FFFFFF;}
	.st16{opacity:0.1;fill:#363636;}
	.st17{fill:#212F3F;}
	.st18{fill:#131B23;}
	.st19{fill:#343C3F;}
	.st20{fill:#363636;stroke:#363636;stroke-width:0.5;stroke-miterlimit:10;}
	.st21{fill:#686868;}
	.st22{fill:#7A7A7A;}
	.st23{fill:#DBDBDB;}
	.st24{fill:#CFD0D1;}
	.st25{fill:#BCBCBC;}
	.st26{opacity:0.1;fill:#41494B;}
	.st27{fill:#E3DFDE;}
	.st28{fill:#A4A7AC;}
	.st29{fill:#41494B;}
	.st30{fill:none;stroke:#41494B;stroke-width:1.5;stroke-linecap:round;stroke-miterlimit:10;}
	.st31{fill:#EEEEEE;}
	.st32{fill:#0A0A0A;}
	.st33{display:none;opacity:0.5;fill:#7A7A7A;}
	.st34{display:none;}
	.st35{display:inline;fill:#FF4081;}
	.st36{font-family:'Roboto-Bold';}
	.st37{fill:#FF4081;}
	.st38{font-size:36px;}
	.st39{fill:none;stroke:#DBDBDB;stroke-width:6;stroke-miterlimit:10;}
</style>
<rect id="BKG" x="178.9" y="135.3" class="st0" width="1544.1" height="1696.4"/>
<rect id="BKG_1_" class="st1" width="2600.8" height="1838"/>
<g id="cart-frame">
	<path class="st2" d="M1162.5,1682.7c0,11-9,20-20,20H170c-11,0-20-9-20-20v-1526c0-11,9-20,20-20h972.5c11,0,20,9,20,20V1682.7z"/>
	<path class="st3" d="M1162.5,1682.7c0,11-9,20-20,20H170c-11,0-20-9-20-20v-1526c0-11,9-20,20-20h972.5c11,0,20,9,20,20V1682.7z"/>
</g>
<g id="total">
	<rect id="total-BKG" x="274.7" y="1521.2" class="st4" width="540.2" height="80"/>
	<g>
		<text transform="matrix(1 0 0 1 815.8486 1571.8517)" class="st5 st6 st7">768,70€</text>
	</g>
	<g>
		<text transform="matrix(1 0 0 1 434.8594 1571.8517)" class="st5 st6 st7">Total</text>
	</g>
	<line id="total-line" class="st8" x1="276.2" y1="1621.2" x2="813.7" y2="1621.2"/>
</g>
<line id="summary-line" class="st9" x1="414.9" y1="1497.8" x2="966.4" y2="1497.8"/>
<g id="cost-summary">
	<g id="taxes">
		<g>
			<text transform="matrix(1 0 0 1 837.8483 1447.7581)" class="st10 st11 st12">168,60€</text>
		</g>
		<g>
			<text transform="matrix(1 0 0 1 434.8594 1447.7581)"><tspan x="0" y="0" class="st10 st11 st12">Taxes </tspan><tspan x="88.6" y="0" class="st10 st13 st14">(included)</tspan></text>
		</g>
	</g>
	<g id="shipping_1_">
		<g>
			<text transform="matrix(1 0 0 1 854.8479 1391.0308)" class="st10 st11 st12">10,00€</text>
		</g>
		<g>
			<text transform="matrix(1 0 0 1 434.8596 1391.0308)" class="st10 st11 st12">Shipping</text>
		</g>
		<line id="shipping-line_1_" class="st8" x1="276.2" y1="1420.4" x2="813.7" y2="1420.4"/>
	</g>
	<g id="discount">
		<text transform="matrix(1 0 0 1 854.3243 1333.4543)" class="st10 st11 st12">84,30€</text>
		<text transform="matrix(1 0 0 1 434.8594 1333.4543)" class="st10 st11 st12">Discount</text>
		<line id="discount-line" class="st8" x1="276.2" y1="1362.8" x2="813.7" y2="1362.8"/>
	</g>
	<g id="subtotal_1_">
		<line id="subtotal-line_1_" class="st8" x1="276.2" y1="1305.2" x2="813.7" y2="1305.2"/>
		<text transform="matrix(1 0 0 1 837.8475 1275.8339)" class="st5 st11 st12">843,00€</text>
		<text transform="matrix(1 0 0 1 434.8594 1275.8339)" class="st5 st11 st12">Subtotal</text>
	</g>
</g>
<g id="arrow-line">
	<line id="overlay-top-line-DX_1_" class="st9" x1="862.4" y1="1177.4" x2="244.5" y2="1177.4"/>
	<polyline id="cart-arrow_2_" class="st9" points="922.4,1177.4 892.4,1207.4 862.4,1177.4 	"/>
	<line id="overlay-top-line-SX_1_" class="st9" x1="1058.2" y1="1177.4" x2="922.4" y2="1177.4"/>
</g>
<g id="socks-line">
	<line id="product-line_1_" class="st8" x1="276.2" y1="1177.8" x2="813.7" y2="1177.8"/>
	<g id="product-BKG_1_">
		<path class="st15" d="M385,1117.8c0,5.5-4.5,10-10,10H275c-5.5,0-10-4.5-10-10v-100c0-5.5,4.5-10,10-10h100c5.5,0,10,4.5,10,10
			V1117.8z"/>
	</g>
	<g id="socks">
		<path class="st16" d="M362.9,1095.8c0-0.1,0-0.3,0-0.4c0-0.1,0-0.2,0-0.2c0-0.1,0-0.2,0-0.2c0-0.1,0-0.2-0.1-0.3
			c0-0.1,0-0.1,0-0.2c0-0.1,0-0.2-0.1-0.3c0-0.1,0-0.1-0.1-0.2c0-0.1-0.1-0.2-0.1-0.3c0-0.1,0-0.2-0.1-0.2c0-0.1-0.1-0.2-0.1-0.3
			c0-0.1-0.1-0.2-0.1-0.2c0-0.1-0.1-0.2-0.1-0.2c0-0.1-0.1-0.2-0.1-0.3c0-0.1-0.1-0.1-0.1-0.2c0-0.1-0.1-0.2-0.1-0.3
			c0-0.1-0.1-0.1-0.1-0.2c-0.1-0.1-0.1-0.2-0.2-0.4c0,0,0-0.1-0.1-0.1c-0.1-0.1-0.1-0.3-0.2-0.4c0,0,0-0.1,0-0.1
			c-0.1-0.2-0.2-0.3-0.2-0.5c0,0,0,0,0,0c-5.2-9.6-19.3-22.7-21.9-28c-3.1-6.4-3.3-35-3.3-35l-21,0c0,0,0.5,3.7,0.9,8.8
			c0.1,1.3,0.2,2.7,0.3,4.1l-15,0c0,0,3.2,24.9-0.4,32.9c0,0,0,0,0,0l0,0c-2,4.4-2.2,8.3-0.6,11.5c0,0.1,0.1,0.1,0.1,0.2
			c0,0,0,0,0,0c0.4,0.7,0.8,1.4,1.3,2c1.3,1.6,3.2,3.1,5.7,4.3c1,0.5,2,1.1,3,1.9l0,0c6.8,5.1,13.2,15.3,21,22.1
			c0.7,0.6,1.5,1.2,2.2,1.7c0,0,0,0,0,0c0,0,0,0,0.1,0c0.1,0.1,0.2,0.1,0.3,0.2c0,0,0,0,0,0c0.6,0.4,1.3,0.7,1.9,1c0,0,0,0,0,0
			c0.1,0,0.2,0.1,0.3,0.1c0,0,0.1,0,0.1,0c0.1,0,0.2,0.1,0.3,0.1c0,0,0.1,0,0.1,0c0.1,0,0.2,0.1,0.3,0.1c0,0,0.1,0,0.1,0
			c0.1,0,0.2,0.1,0.3,0.1c0,0,0.1,0,0.1,0c0.1,0,0.2,0.1,0.3,0.1c0,0,0.1,0,0.1,0c0.1,0,0.2,0,0.3,0.1c0,0,0.1,0,0.1,0
			c0.1,0,0.2,0,0.3,0.1c0,0,0,0,0.1,0c0.5,0.1,0.9,0.1,1.4,0.2c0,0,0,0,0,0c0.1,0,0.2,0,0.3,0c0,0,0.1,0,0.1,0c0.1,0,0.2,0,0.3,0
			c0,0,0.1,0,0.1,0c0.1,0,0.2,0,0.2,0c0,0,0.1,0,0.1,0c0.1,0,0.2,0,0.2,0c0,0,0.1,0,0.1,0c0.1,0,0.1,0,0.2,0c0,0,0.1,0,0.1,0
			c0.1,0,0.1,0,0.2,0c0,0,0.1,0,0.1,0c0.1,0,0.1,0,0.2,0c0,0,0.1,0,0.1,0c0.1,0,0.1,0,0.2,0c0,0,0.1,0,0.1,0c0.1,0,0.1,0,0.2-0.1
			c0,0,0.1,0,0.1,0c0.3-0.1,0.5-0.2,0.8-0.3c0,0,0.1,0,0.1,0c0.1,0,0.1-0.1,0.2-0.1c0,0,0.1,0,0.1,0c0.1,0,0.1-0.1,0.2-0.1
			c0,0,0.1,0,0.1-0.1c0.1,0,0.1-0.1,0.2-0.1c0,0,0.1,0,0.1-0.1c0.1,0,0.1-0.1,0.2-0.1c0,0,0.1,0,0.1-0.1c0.1,0,0.1-0.1,0.2-0.1
			c0,0,0.1,0,0.1-0.1c0.1,0,0.1-0.1,0.2-0.1c0,0,0.1-0.1,0.1-0.1c0.1,0,0.1-0.1,0.2-0.1c0,0,0.1-0.1,0.1-0.1c0.1,0,0.1-0.1,0.2-0.1
			c0,0,0.1,0,0.1-0.1c0.1,0,0.1-0.1,0.2-0.1c0,0,0,0,0.1-0.1c0.2-0.2,0.4-0.4,0.6-0.6c0,0,0,0,0,0c0.1-0.1,0.1-0.1,0.2-0.2
			c0,0,0,0,0.1-0.1c0-0.1,0.1-0.1,0.1-0.2c0,0,0-0.1,0.1-0.1c0-0.1,0.1-0.1,0.1-0.2c0,0,0-0.1,0.1-0.1c0-0.1,0.1-0.1,0.1-0.2
			c0,0,0-0.1,0.1-0.1c0-0.1,0.1-0.1,0.1-0.2c0,0,0-0.1,0.1-0.1c0-0.1,0.1-0.1,0.1-0.2c0,0,0-0.1,0.1-0.1c0-0.1,0.1-0.1,0.1-0.2
			c0,0,0-0.1,0-0.1c0-0.1,0.1-0.2,0.1-0.2c0,0,0,0,0-0.1c0-0.1,0.1-0.2,0.1-0.3c0,0,0,0,0,0c0.2-0.4,0.3-0.8,0.4-1.3c0,0,0,0,0,0
			c0-0.1,0-0.2,0.1-0.3c0,0,0,0,0-0.1c0-0.1,0-0.2,0.1-0.3c0,0,0-0.1,0-0.1c0-0.1,0-0.2,0-0.3c0,0,0-0.1,0-0.1c0-0.1,0-0.2,0-0.3
			c0,0,0-0.1,0-0.1c0-0.1,0-0.2,0-0.3c0,0,0-0.1,0-0.1c0-0.1,0-0.2,0-0.3c0,0,0-0.1,0-0.1c0-0.1,0-0.2,0-0.3c0,0,0-0.1,0-0.1
			c0-0.1,0-0.2,0-0.3c0,0,0,0,0-0.1c0-0.2,0-0.5,0-0.7c-0.1-1.3-0.6-2.8-1.3-4.4c0.1,0,0.1,0.1,0.2,0.1c0.1,0,0.1,0.1,0.2,0.1
			c0.1,0,0.2,0.1,0.3,0.1c0.1,0,0.1,0.1,0.2,0.1c0.1,0.1,0.3,0.1,0.4,0.2c0.1,0,0.1,0.1,0.2,0.1c0.1,0,0.2,0.1,0.3,0.1
			c0.1,0,0.1,0.1,0.2,0.1c0.1,0,0.2,0.1,0.3,0.1c0,0,0.1,0,0.1,0.1c0.1,0.1,0.3,0.1,0.4,0.1c0,0,0.1,0,0.1,0c0.1,0,0.2,0.1,0.3,0.1
			c0,0,0.1,0,0.1,0c0.3,0.1,0.6,0.1,0.9,0.2c0,0,0,0,0.1,0c0.2,0,0.3,0,0.5,0.1c0,0,0,0,0,0c0.2,0,0.3,0,0.5,0c0,0,0,0,0,0
			c5.5,0.4,9.9-3.7,9.8-9.7C362.9,1096.2,362.9,1096,362.9,1095.8z"/>
		<path class="st17" d="M348.6,1102.8c-2.6-0.2-5.5-1.4-8.3-3.8c-8.9-7.8-16.1-20-24-23.9c-7.9-4-10.1-10.1-6.5-18.1
			c2.2-4.9,1.8-16.2,1.2-24.1c-0.4-5.1-0.9-8.8-0.9-8.8l21,0c0,0,0.2,28.5,3.3,35c3.1,6.4,23.2,24.2,23.8,33.5
			C358.8,1098.9,354.3,1103.2,348.6,1102.8z"/>
		<path class="st18" d="M348.6,1102.8c-2.6-0.2-5.5-1.4-8.3-3.8c-8.9-7.8-16.1-20-24-23.9c-7.9-4-10.1-10.1-6.5-18.1
			c2.2-4.9,1.8-16.2,1.2-24.1l10.4,0c0,0,0.2,28.5,3.3,35c3.1,6.4,23.2,24.2,23.8,33.5C348.7,1101.8,348.7,1102.3,348.6,1102.8z"/>
		<path class="st10" d="M315.5,1037.6c-0.7,0-1.3-0.6-1.4-1.3l-0.5-7.6c-0.1-0.8,0.5-1.4,1.3-1.5c0.8,0,1.4,0.5,1.5,1.3l0.5,7.6
			C317,1036.8,316.4,1037.5,315.5,1037.6C315.6,1037.6,315.5,1037.6,315.5,1037.6z"/>
		<path class="st10" d="M309.8,1057l14.9,3.7l-5.4,16.3c-1-0.7-2-1.4-3-1.9C308.5,1071.1,306.3,1065,309.8,1057z"/>
		<path class="st10" d="M348.6,1102.8C348.6,1102.8,348.6,1102.8,348.6,1102.8c-2-0.1-4-0.8-6.1-2.2c0.7-2.9,1.6-5.4,2.7-7.4
			c3.9-7.3,9.6-9,9.6-9c2,3.1,3.4,6,3.6,8.3C358.8,1098.9,354.3,1103.2,348.6,1102.8z"/>
		<path class="st19" d="M348.6,1102.8C348.6,1102.8,348.6,1102.8,348.6,1102.8c-2-0.1-4-0.8-6.1-2.2c0.7-2.9,1.6-5.4,2.7-7.4
			c1.9,3,3.2,5.8,3.4,8C348.7,1101.8,348.7,1102.3,348.6,1102.8z"/>
		<path class="st17" d="M317.3,1037c0,0,0.2,28.6,3.3,35c3.1,6.4,23.2,24.2,23.8,33.5c0.6,9.3-9.2,14.2-18.1,6.4
			c-8.9-7.8-16.1-20-24-23.9c-7.9-4-10.1-10-6.5-18.1c3.6-8,0.4-32.9,0.4-32.9L317.3,1037z"/>
		<path class="st10" d="M295.9,1069.9l14.9,3.7l-5.4,16.3c-1-0.7-2-1.4-3-1.9C294.6,1084,292.4,1077.9,295.9,1069.9z"/>
		<path class="st10" d="M328.6,1113.6c3.2-13.6,12.3-16.4,12.3-16.4c2,3.1,3.4,6,3.6,8.3C345,1114,336.8,1118.8,328.6,1113.6z"/>
		<g>
			<path class="st10" d="M301.6,1050.5c-0.7,0-1.3-0.6-1.4-1.3l-0.5-7.6c-0.1-0.8,0.5-1.4,1.3-1.5c0.8,0,1.4,0.5,1.5,1.3l0.5,7.6
				C303.1,1049.7,302.5,1050.4,301.6,1050.5C301.7,1050.5,301.7,1050.5,301.6,1050.5z"/>
			<path class="st10" d="M307.1,1050.7c-0.7,0-1.3-0.6-1.4-1.3l-0.5-7.6c-0.1-0.8,0.5-1.4,1.3-1.5c0.8,0,1.4,0.5,1.5,1.3l0.5,7.6
				C308.5,1050,308,1050.6,307.1,1050.7C307.2,1050.7,307.1,1050.7,307.1,1050.7z"/>
			<path class="st10" d="M312.6,1050.9c-0.7,0-1.3-0.6-1.4-1.3l-0.5-7.6c-0.1-0.8,0.5-1.4,1.3-1.5c0.8-0.1,1.4,0.5,1.5,1.3l0.5,7.6
				C314,1050.2,313.4,1050.9,312.6,1050.9C312.6,1050.9,312.6,1050.9,312.6,1050.9z"/>
			<path class="st10" d="M321,1037.8c-0.7,0-1.3-0.6-1.4-1.3l-0.5-7.6c-0.1-0.8,0.5-1.4,1.3-1.5c0.8,0,1.4,0.5,1.5,1.3l0.5,7.6
				C322.4,1037.1,321.8,1037.7,321,1037.8C321,1037.8,321,1037.8,321,1037.8z"/>
			<path class="st10" d="M326.4,1038c-0.7,0-1.3-0.6-1.4-1.3l-0.5-7.6c-0.1-0.8,0.5-1.4,1.3-1.5c0.8,0,1.4,0.5,1.5,1.3l0.5,7.6
				C327.9,1037.3,327.3,1038,326.4,1038C326.5,1038,326.5,1038,326.4,1038z"/>
		</g>
	</g>
	<text transform="matrix(1 0 0 1 434.8592 1038.265)" class="st5 st11 st12">Blue Socks XS</text>
	<text transform="matrix(1 0 0 1 434.8592 1070.3282)" class="st5 st13 st14">SOCKS212F3FXS</text>
	<text transform="matrix(1 0 0 1 434.8592 1115.3282)" class="st5 st13 st14">29,00€</text>
	<g id="socks-qty">
		<g id="qty-box_1_">
			<path class="st15" d="M788.6,1048.4c0,5.5-4.5,10-10,10h-80c-5.5,0-10-4.5-10-10v-30c0-5.5,4.5-10,10-10h80c5.5,0,10,4.5,10,10
				V1048.4z"/>
		</g>
		<g id="dropdown_1_">
			<path class="st20" d="M762.4,1031.1c-0.3-0.3-0.7-0.3-0.9,0l-8.2,8.2l-8.2-8.2c-0.3-0.3-0.7-0.3-0.9,0c-0.3,0.3-0.3,0.7,0,0.9
				l8.7,8.7c0.1,0.1,0.3,0.2,0.5,0.2c0.2,0,0.3-0.1,0.5-0.2l8.7-8.7C762.6,1031.7,762.6,1031.3,762.4,1031.1z"/>
		</g>
		<text id="_x31__1_" transform="matrix(1 0 0 1 717.0516 1042.2325)" class="st5 st13 st14">3</text>
	</g>
	<text transform="matrix(1 0 0 1 855.3647 1042.2328)" class="st5 st11 st12">87,00€</text>
	<g id="close-button-x_1_">
		<circle class="st9" cx="1017.5" cy="1033.4" r="20"/>
		<g>
			<line class="st9" x1="1010.4" y1="1040.5" x2="1024.6" y2="1026.3"/>
			<line class="st9" x1="1024.6" y1="1040.5" x2="1010.4" y2="1026.3"/>
		</g>
	</g>
</g>
<g id="hoodie-line">
	<line id="product-line_17_" class="st9" x1="244.5" y1="957.1" x2="1058.2" y2="957.1"/>
	<g id="product-BKG_6_">
		<path class="st15" d="M384.5,897.1c0,5.5-4.5,10-10,10h-100c-5.5,0-10-4.5-10-10v-100c0-5.5,4.5-10,10-10h100c5.5,0,10,4.5,10,10
			V897.1z"/>
	</g>
	<text transform="matrix(1 0 0 1 434.8592 817.5262)" class="st5 st11 st12">Black Hoodie M</text>
	<text transform="matrix(1 0 0 1 434.8592 849.5894)" class="st5 st13 st14">HOODIE000000M</text>
	<text transform="matrix(1 0 0 1 434.8592 894.5894)" class="st5 st13 st14">199,00€</text>
	<g id="hoodie-qty">
		<g id="qty-box_5_">
			<path class="st15" d="M788.6,826.3c0,5.5-4.5,10-10,10h-80c-5.5,0-10-4.5-10-10v-30c0-5.5,4.5-10,10-10h80c5.5,0,10,4.5,10,10
				V826.3z"/>
		</g>
		<g id="dropdown_3_">
			<path class="st20" d="M762.4,809c-0.3-0.3-0.7-0.3-0.9,0l-8.2,8.2L745,809c-0.3-0.3-0.7-0.3-0.9,0c-0.3,0.3-0.3,0.7,0,0.9
				l8.7,8.7c0.1,0.1,0.3,0.2,0.5,0.2c0.2,0,0.3-0.1,0.5-0.2l8.7-8.7C762.6,809.7,762.6,809.3,762.4,809z"/>
		</g>
		<text id="_x31__17_" transform="matrix(1 0 0 1 717.0516 820.1803)" class="st5 st13 st14">1</text>
	</g>
	<text transform="matrix(1 0 0 1 838.8461 820.526)" class="st5 st11 st12">199,00€</text>
	<g id="close-button-x_3_">
		<circle class="st9" cx="1017.5" cy="811.1" r="20"/>
		<g>
			<line class="st9" x1="1010.4" y1="818.2" x2="1024.6" y2="804.1"/>
			<line class="st9" x1="1024.6" y1="818.2" x2="1010.4" y2="804.1"/>
		</g>
	</g>
	<g id="hoodie">
		<path id="shadow" class="st16" d="M362.5,871v-45.6c0-5.5-6.1-9.3-10.9-11.5c-3.3-10.1-10-11.8-10-11.8h-8.4H310
			c0,0-6.6,1.7-10,11.7c-4.9,2.2-11.1,6.1-11.1,11.6V871v7v0.2c0,0.7,0.5,1.3,1.2,1.5l9.7,2.6v0.8v8.9c0,0,0,0,0,0v0.2
			c0,0.9,0.7,1.6,1.6,1.6H350c0.9,0,1.6-0.7,1.6-1.6v-4.9h0v-5l0,0v0.8c0,0,0,0,0,0v-0.8l4.1-1.1v0l5.6-1.5c0.7-0.2,1.2-0.8,1.2-1.5
			L362.5,871L362.5,871z M345.8,811.7c-0.2-0.1-0.4-0.1-0.6,0l0.2-0.1C345.4,811.6,345.5,811.6,345.8,811.7z M306.2,811.7
			c-0.2,0-0.4,0-0.6,0c0.3-0.1,0.4-0.1,0.4-0.1L306.2,811.7z"/>
		<polygon class="st21" points="307.5,800.1 339,800.1 323.3,816.4 		"/>
		<path class="st22" d="M318.5,811.5c6-1,10.8-5.5,12.1-11.4h-23.1L318.5,811.5z"/>
		<path class="st5" d="M343.4,809.8c-0.3-0.1-0.7-0.1-1,0l-19.2,6.6l-19.2-6.6c-0.3-0.1-0.6-0.1-1,0c-1.7,0.5-16.6,5.1-16.6,13.7
			V876c0,0.7,0.5,1.3,1.2,1.5l9.7,2.6v9.9c0,0.9,0.7,1.6,1.6,1.6h48.5c0.9,0,1.6-0.7,1.6-1.6v-9.9l9.7-2.6c0.7-0.2,1.2-0.8,1.2-1.5
			v-52.6C359.9,814.8,345.1,810.3,343.4,809.8z"/>
		<polygon class="st10" points="314.2,807 332.4,807 339,800.1 307.5,800.1 		"/>
		<path class="st23" d="M306.4,885.5h-9v4.9c0,0.9,0.7,1.6,1.6,1.6h48.5c0.9,0,1.6-0.7,1.6-1.6v-4.9h-37.8H306.4z"/>
		<path class="st23" d="M323.2,819.8l19.7-10.2c0,0,2.8,0.8,6.2,2.3l0,0c-3.3-10.1-10-11.8-10-11.8l-18,18.6v0L323.2,819.8z"/>
		<g>
			<path class="st24" d="M303.5,809.6l17.5,9.1v0l2.2-2.3l-15.7-16.3c0,0-6.6,1.7-10,11.7C300.8,810.4,303.5,809.6,303.5,809.6z"/>
			<path class="st24" d="M340.4,865.5c-4.3-2.3-6.9-6.7-6.9-11.5c0-0.5-0.4-1-1-1h-18.4c-0.5,0-1,0.4-1,1c0,4.8-2.7,9.2-6.9,11.5
				c-0.3,0.2-0.5,0.5-0.5,0.9v11.7c0,0.5,0.4,1,1,1H340c0.5,0,1-0.4,1-1v-11.7C340.9,866,340.7,865.7,340.4,865.5z"/>
		</g>
		<path class="st15" d="M340.4,865.5c-4.3-2.3-6.9-6.7-6.9-11.5c0-0.5-0.4-1-1-1h-18.4c-0.5,0-1,0.4-1,1c0,4.8-2.7,9.2-6.9,11.5
			c-0.3,0.2-0.5,0.5-0.5,0.9v11.7c0,0.5,0.4,1,1,1H340c0.5,0,1-0.4,1-1v-11.7C340.9,866,340.7,865.7,340.4,865.5z"/>
		<g>
			<path class="st15" d="M332.8,841.2c-0.8,0-1.5-0.7-1.5-1.5v-26.8c0-0.8,0.7-1.5,1.5-1.5c0.8,0,1.5,0.7,1.5,1.5v26.8
				C334.3,840.6,333.7,841.2,332.8,841.2z"/>
			<path class="st15" d="M314,841.2c-0.8,0-1.5-0.7-1.5-1.5v-26.8c0-0.8,0.7-1.5,1.5-1.5c0.8,0,1.5,0.7,1.5,1.5v26.8
				C315.5,840.6,314.8,841.2,314,841.2z"/>
		</g>
		<path class="st25" d="M330.7,800.1h-23.1l6.6,6.8h12.9C328.8,805.1,330.1,802.7,330.7,800.1z"/>
		<g>
			<path class="st22" d="M295.3,832.8c-1.1,0-2,0.9-2,2v44.3l4.1,1.1v1c0,0,0,0,0,0v-46.3C297.3,833.7,296.4,832.8,295.3,832.8z"/>
			<path class="st22" d="M351.1,832.8c1.1,0,2,0.9,2,2v44.3l-4.1,1.1v1c0,0,0,0,0,0v-46.3C349.1,833.7,350,832.8,351.1,832.8z"/>
		</g>
		<path class="st23" d="M349.1,880.4l9.7-2.6c0.7-0.2,1.2-0.8,1.2-1.5V869l-10.9,3V880.4z"/>
		<polygon class="st10" points="349.1,872 349.1,872.2 349.1,880.2 349.1,880.4 353.1,879.3 353.1,879.1 353.1,871.1 353.1,870.9 		
			"/>
		<path class="st23" d="M287.6,877.8l9.7,2.6V872l-10.9-3v7.2C286.5,877,286.9,877.6,287.6,877.8z"/>
		<polygon class="st10" points="293.3,870.9 293.3,871.1 293.3,879.1 293.3,879.3 297.3,880.4 297.3,880.2 297.3,872.2 297.3,872 		
			"/>
		<path class="st23" d="M320.4,858.4c0-1.8,0.2-3.6,0.6-5.4h-7c-0.5,0-1,0.4-1,1c0,4.8-2.7,9.2-6.9,11.5c-0.3,0.2-0.5,0.5-0.5,0.9
			v11.7c0,0.5,0.4,1,1,1h27.5C326.1,875.7,320.4,867.7,320.4,858.4z"/>
	</g>
</g>
<g id="shoes-line">
	<line id="product-line_16_" class="st9" x1="244.5" y1="736.8" x2="1058.2" y2="736.8"/>
	<g id="product-BKG_2_">
		<path class="st15" d="M384.5,676.8c0,5.5-4.5,10-10,10h-100c-5.5,0-10-4.5-10-10v-100c0-5.5,4.5-10,10-10h100c5.5,0,10,4.5,10,10
			V676.8z"/>
	</g>
	<text transform="matrix(1 0 0 1 434.8592 597.2932)" class="st5 st11 st12">White Shoes 41</text>
	<text transform="matrix(1 0 0 1 434.8592 629.3564)" class="st5 st13 st14">SHOESFFFFFF41</text>
	<text transform="matrix(1 0 0 1 434.8592 674.3564)" class="st5 st13 st14">299,00€</text>
	<g id="shoes-qty">
		<g id="qty-box_2_">
			<path class="st15" d="M788.6,606.1c0,5.5-4.5,10-10,10h-80c-5.5,0-10-4.5-10-10v-30c0-5.5,4.5-10,10-10h80c5.5,0,10,4.5,10,10
				V606.1z"/>
		</g>
		<g id="dropdown_2_">
			<path class="st20" d="M762.4,588.8c-0.3-0.3-0.7-0.3-0.9,0l-8.2,8.2l-8.2-8.2c-0.3-0.3-0.7-0.3-0.9,0c-0.3,0.3-0.3,0.7,0,0.9
				l8.7,8.7c0.1,0.1,0.3,0.2,0.5,0.2c0.2,0,0.3-0.1,0.5-0.2l8.7-8.7C762.6,589.4,762.6,589,762.4,588.8z"/>
		</g>
		<text id="_x31__2_" transform="matrix(1 0 0 1 717.0516 599.9473)" class="st5 st13 st14">1</text>
	</g>
	<text transform="matrix(1 0 0 1 838.8461 600.293)" class="st5 st11 st12">299,00€</text>
	<g id="close-button-x_2_">
		<circle class="st9" cx="1017.5" cy="590.9" r="20"/>
		<g>
			<line class="st9" x1="1010.4" y1="598" x2="1024.6" y2="583.8"/>
			<line class="st9" x1="1024.6" y1="598" x2="1010.4" y2="583.8"/>
		</g>
	</g>
	<g id="shoes">
		<path class="st26" d="M375.5,645.4c-0.2-0.7-0.6-2.1-1.8-2.2c0,0,0,0,0,0c0,0,0,0,0,0s-1.2-6.3-6.8-8c-1.1-0.3-2.3-0.6-3.7-0.8
			c1.2-0.6,2.2-1.2,3.1-1.8c0.2-0.2,0.3-0.4,0.3-0.7c-0.2-0.7-0.6-2.1-1.8-2.2c0,0,0,0,0,0c0,0,0,0,0,0s-1.2-6.3-6.8-8
			c-3.5-1.1-9.7-1.4-13.8-1.5c0,0,0,0,0,0c-0.1,0-0.2,0-0.3,0c-2.4-0.1-4,0-4,0l-4.7-2.8c0,0,0.1-0.1,0.1-0.1l-20.8-12.5
			c-0.2-0.1-0.4-0.1-0.5-0.1c-0.2,0-0.5,0-0.7,0.2c-1.1,1-3.9,3.6-7.5,6c-3.5,2.3-7.5,4.4-11.1,4.5c-6.1,0.1-10.4-3-12.1-4.6
			c-0.4-0.4-1.1-0.2-1.3,0.3c-0.3,1.1-0.9,2.8-1.3,5c-0.9,4.5-1.4,10.8,0.8,16.3c-0.5-0.1-1.4,0.1-1.3,3.2c0.1,4.1,0,6.6,0,6.6h9.5
			c0.3,1.3,0.6,2.6,1.2,3.9c0-0.1-0.1-0.1-0.1-0.1s0.5,8.8,1.5,10c1.4,1.8,20.4,1.1,21.3,0.3c0.9-0.8,0.4-3.3,0.4-3.3
			s21.7,3.4,33.6,2.5c9.5-0.7,23.1-5.6,28.4-9.5C375.5,645.9,375.6,645.6,375.5,645.4z M294.8,648c2.1,0.2,4.9,0.4,8,0.7
			c0.1,0,0.2,0,0.4,0C299.1,648.4,296.6,648.2,294.8,648z M341.9,652.4C341.9,652.4,342,652.4,341.9,652.4
			C342,652.4,342,652.4,341.9,652.4C341.9,652.4,341.9,652.4,341.9,652.4z"/>
		<g>
			<path class="st27" d="M278,631.3c0,0,5.4,0.4,11.8,1c5.6,0.5,12.1,1.2,16.6,2c0.3,0,0.6,0.1,0.8,0.1c9.3,1.8,29.3,2.8,40.5-1.1
				c11.2-3.9,13.1-6.7,13.1-6.7s-1.2-6.3-6.8-8c-3.5-1.1-9.7-1.4-13.8-1.5c-2.4-0.1-4,0-4,0l-4.9-2.9l-20.8-12.5
				c-0.3-0.2-0.7-0.1-1,0.1c-1.1,1-3.9,3.6-7.5,6c-3.5,2.3-7.5,4.4-11.1,4.5c-6.1,0.1-10.4-3-12.1-4.6c-0.4-0.4-1.1-0.2-1.3,0.3
				c-0.3,1.1-0.9,2.8-1.3,5C275.3,618.1,274.8,625.4,278,631.3z"/>
			<path class="st28" d="M302.4,607.9c3.7,1.4,13.6,5.5,17,8.6c4.2,3.9,5,3.5,6.6,3.7c1.2,0.2,4-3.7,5.5-6l-20.8-12.5
				c-0.3-0.2-0.7-0.1-1,0.1C308.8,602.8,305.9,605.5,302.4,607.9z"/>
			<path class="st29" d="M278.3,631.3c0,0,5.4,0.4,11.8,1c-3-11.2-10.1-16.9-13.5-19.2C275.6,618.1,275.1,625.4,278.3,631.3z"/>
			<path class="st29" d="M306.6,634.3c0.3,0,0.6,0.1,0.8,0.1c9.3,1.8,29.3,2.8,40.5-1.1c11.2-3.9,13.1-6.7,13.1-6.7s-1.2-6.3-6.8-8
				c-3.5-1.1-9.7-1.4-13.8-1.5c1.7,1.2,3.8,2.9,1.8,3.7c-3,1.2-16,1.1-20.7,1.8C316.9,623.4,306.2,624.1,306.6,634.3z"/>
			<circle class="st15" cx="327.8" cy="614.7" r="1.1"/>
			<path class="st15" d="M323.3,612.4c0,0.6,0.5,1.1,1.1,1.1c0.6,0,1.1-0.5,1.1-1.1c0-0.6-0.5-1.1-1.1-1.1
				C323.8,611.3,323.3,611.8,323.3,612.4z"/>
			<path class="st15" d="M319.7,610.2c0,0.6,0.5,1.1,1.1,1.1c0.6,0,1.1-0.5,1.1-1.1c0-0.6-0.5-1.1-1.1-1.1
				C320.1,609.2,319.7,609.7,319.7,610.2z"/>
			<path class="st15" d="M316.3,608c0,0.6,0.5,1.1,1.1,1.1c0.6,0,1.1-0.5,1.1-1.1c0-0.6-0.5-1.1-1.1-1.1
				C316.8,606.9,316.3,607.4,316.3,608z"/>
			<path class="st28" d="M277.4,629.5c0,0-1.7-1-1.6,3.1c0.1,4.1,0,6.6,0,6.6h24.6V636c0,0,24.4,2.8,34.1,2.3
				c9.5-0.5,22.7-4.9,28-8.7c0.2-0.2,0.3-0.4,0.3-0.7c-0.2-0.7-0.6-2.1-1.8-2.2c0,0-9.1,8.6-31.8,9.3c-20.5-0.9-19-2-31.1-3.1
				c-12-1-19.9-1.7-19.9-1.7L277.4,629.5z"/>
			<line class="st30" x1="329.2" y1="612.4" x2="327.8" y2="614.7"/>
			<line class="st30" x1="325.8" y1="610" x2="324.4" y2="612.4"/>
			<line class="st30" x1="322.4" y1="607.7" x2="321" y2="610"/>
			<line class="st30" x1="319" y1="605.3" x2="317.6" y2="607.7"/>
		</g>
		<path class="st31" d="M344.9,639.6c7.2-0.3,11.4,0.5,17.8-2.4c-1-1.3-1.3-1.8-3.4-2.4c-3.5-1.1-5.9-5.7-9.9-5.8c-2.4-0.1-4,0-4,0
			l-4.9-2.9l-20.8-12.5c-0.3-0.2-0.7-0.1-1,0.1c-1.1,1-3.9,3.6-7.5,6c-3.5,2.3-7.5,4.4-11.1,4.5c-6.1,0.1-10.4-3-12.1-4.6
			c-0.4-0.4-1.1-0.2-1.3,0.3c-0.2,0.6-0.4,1.3-0.6,2.2c0,2.9,0.5,6,1.7,8.8l-0.1-0.2c0,0-1.7-1-1.6,3.1c0.1,4.1,0,6.6,0,6.6h24.6
			v-3.2C310.8,637.2,335.2,640,344.9,639.6z M299.2,633.4c-6.6-0.6-10.5-0.9-10.5-0.9l0-0.1c0,0,0,0.1,0,0.1
			C288.6,632.5,293.3,632.8,299.2,633.4z M339.7,637.2C339.7,637.2,339.6,637.2,339.7,637.2C339.6,637.2,339.6,637.2,339.7,637.2
			C339.6,637.2,339.6,637.2,339.7,637.2z"/>
		<g>
			<path class="st15" d="M287.3,644.7c0,0,5.4,0.4,11.8,1c5.6,0.5,12.1,1.2,16.6,2c0.3,0,0.6,0.1,0.8,0.1c9.3,1.8,29.3,2.8,40.5-1.1
				c11.2-3.9,13.1-6.7,13.1-6.7s-1.2-6.3-6.8-8c-3.5-1.1-9.7-1.4-13.8-1.5c-2.4-0.1-4,0-4,0l-4.9-2.9l-20.8-12.5
				c-0.3-0.2-0.7-0.1-1,0.1c-1.1,1-3.9,3.6-7.5,6c-3.5,2.3-7.5,4.4-11.1,4.5c-6.1,0.1-10.4-3-12.1-4.6c-0.4-0.4-1.1-0.2-1.3,0.3
				c-0.3,1.1-0.9,2.8-1.3,5C284.6,631.6,284.1,638.9,287.3,644.7z"/>
			<path class="st28" d="M311.4,621.4c3.7,1.4,13.6,5.5,17,8.6c4.2,3.9,5,3.5,6.6,3.7c1.2,0.2,4-3.7,5.5-6l-20.8-12.5
				c-0.3-0.2-0.7-0.1-1,0.1C317.8,616.3,314.9,619,311.4,621.4z"/>
			<path class="st29" d="M287.3,644.7c0,0,5.4,0.4,11.8,1c-3-11.2-10.1-16.9-13.5-19.2C284.6,631.6,284.1,638.9,287.3,644.7z"/>
			<path class="st29" d="M315.6,647.8c0.3,0,0.6,0.1,0.8,0.1c9.3,1.8,29.3,2.8,40.5-1.1c11.2-3.9,13.1-6.7,13.1-6.7s-1.2-6.3-6.8-8
				c-3.5-1.1-9.7-1.4-13.8-1.5c1.7,1.2,3.8,2.9,1.8,3.7c-3,1.2-16,1.1-20.7,1.8C325.9,636.8,315.2,637.6,315.6,647.8z"/>
			<path class="st15" d="M335.7,628.2c0,0.6,0.5,1.1,1.1,1.1c0.6,0,1.1-0.5,1.1-1.1c0-0.6-0.5-1.1-1.1-1.1
				C336.2,627.1,335.7,627.6,335.7,628.2z"/>
			<path class="st15" d="M332.3,625.8c0,0.6,0.5,1.1,1.1,1.1c0.6,0,1.1-0.5,1.1-1.1c0-0.6-0.5-1.1-1.1-1.1
				C332.8,624.8,332.3,625.3,332.3,625.8z"/>
			<circle class="st15" cx="329.7" cy="623.7" r="1.1"/>
			<path class="st15" d="M325.3,621.4c0,0.6,0.5,1.1,1.1,1.1c0.6,0,1.1-0.5,1.1-1.1c0-0.6-0.5-1.1-1.1-1.1
				C325.8,620.4,325.3,620.9,325.3,621.4z"/>
			<path class="st28" d="M286.4,643c0,0,0.5,8.8,1.5,10c1.4,1.8,20.4,1.1,21.3,0.3c0.9-0.8,0.4-3.3,0.4-3.3s21.7,3.4,33.6,2.5
				c9.5-0.7,23.1-5.6,28.4-9.5c0.2-0.2,0.3-0.4,0.3-0.7c-0.2-0.7-0.6-2.1-1.8-2.2c0,0-9.1,8.6-31.8,9.3c-20.5-0.9-19-2-31.1-3
				c-12-1-16.2-1.2-18.3-1.7C286.9,644.2,286.4,643,286.4,643z"/>
			<line class="st30" x1="338.2" y1="625.8" x2="336.8" y2="628.2"/>
			<line class="st30" x1="334.8" y1="623.5" x2="333.4" y2="625.8"/>
			<line class="st30" x1="331.4" y1="621.1" x2="330" y2="623.5"/>
			<line class="st30" x1="328" y1="618.8" x2="326.6" y2="621.1"/>
		</g>
	</g>
</g>
<g id="t-shirt-line">
	<line id="product-line" class="st9" x1="244.5" y1="516" x2="1058.2" y2="516"/>
	<g id="product-BKG">
		<path class="st15" d="M384.5,456c0,5.5-4.5,10-10,10h-100c-5.5,0-10-4.5-10-10V356c0-5.5,4.5-10,10-10h100c5.5,0,10,4.5,10,10V456
			z"/>
	</g>
	<g id="t-shirt_1_">
		<path id="shadow_1_" class="st16" d="M370.9,395.3l-0.5-3.1h0l-2.6-15.5c-0.6-3.5-3.2-6.3-6.7-7.2l-9.7-2.4
			c-1.5-0.4-3-0.6-4.5-0.6c-0.2,0-0.4,0-0.5,0l-36.6,0c-0.2,0-0.4,0-0.5,0c-1.5,0-3,0.2-4.5,0.6l-9.7,2.4c-3.5,0.9-6.1,3.7-6.6,7.2
			v0v0l-2.6,15.5l0,0l-0.5,3.1c-0.2,1.4,0.6,2.8,1.9,3.3l11.1,4l0,0l3,1.1l0,47.7c0,0.8,0.7,1.5,1.5,1.5l50.7-0.1
			c0.8,0,1.5-0.7,1.5-1.5l0-47.7l14.1-5.1C370.4,398.1,371.2,396.7,370.9,395.3z"/>
		<path id="XMLID_32_" class="st10" d="M366.3,372.1c-0.6-3.6-3.3-6.5-6.9-7.4l-10-2.5c-1.7-0.4-3.5-0.6-5.2-0.6l-37.8,0
			c-1.8,0-3.5,0.2-5.2,0.6l-10,2.5c-3.6,0.9-6.3,3.8-6.9,7.5l-3.2,19.2c-0.2,1.5,0.6,2.9,2,3.4l14.5,5.3l0,49.3
			c0,0.9,0.7,1.5,1.5,1.5l52.4-0.1c0.9,0,1.5-0.7,1.5-1.5l0-49.3l14.5-5.3c1.4-0.5,2.2-1.9,2-3.4L366.3,372.1z"/>
		<g id="XMLID_29_">
			<path id="XMLID_31_" class="st5" d="M344.6,361.6c-0.4,0-0.7,0-1.1,0l-36.6,0c-0.4,0-0.7,0-1.1,0c0,10.7,8.7,19.3,19.4,19.3
				C335.9,380.9,344.6,372.3,344.6,361.6z"/>
		</g>
		<path id="XMLID_28_" class="st32" d="M340.1,361.6c0,8.2-6.7,14.9-14.9,14.9c-8.2,0-14.9-6.7-14.9-14.9"/>
		<path id="XMLID_26_" class="st33" d="M435.2,378.1c-2.4,0-4.3,1.9-4.3,4.3l0,39.9l8.6,3.1l0-43.1
			C439.5,380,437.6,378.1,435.2,378.1z"/>
		<path id="XMLID_21_" class="st33" d="M598.9,377.9c2.4,0,4.3,1.9,4.3,4.3l0,39.9l-8.6,3.1l0-43.1
			C594.6,379.9,596.5,377.9,598.9,377.9z"/>
		<g>
			<g id="XMLID_23_">
				<path id="XMLID_24_" class="st22" d="M356.1,375.4l7.9-7.9c1.2,1.3,2,3,2.3,4.8l3.2,19.2c0.2,1.5-0.6,2.9-2,3.4l-14.5,5.3
					l0-17.1C353,380.1,354.1,377.4,356.1,375.4z"/>
			</g>
			<path id="XMLID_22_" class="st5" d="M369,388.2l0.5,3.2c0.2,1.5-0.6,2.9-2,3.4l-14.5,5.3l0-6.2L369,388.2z"/>
			<g id="XMLID_18_">
				<polygon id="XMLID_20_" class="st32" points="356.1,399 353,400.1 353,393.9 356.1,392.8 				"/>
			</g>
		</g>
		<path id="XMLID_1_" class="st23" d="M328.2,367.5l-6,0c-0.8,0-1.5-0.7-1.5-1.5l0,0c0-0.8,0.7-1.5,1.5-1.5l6,0
			c0.8,0,1.5,0.7,1.5,1.5l0,0C329.7,366.9,329,367.5,328.2,367.5z"/>
		<path id="star_1_" class="st5" d="M326.2,389.4l2.2,4.5c0.2,0.3,0.5,0.5,0.8,0.6l5,0.7c0.9,0.1,1.2,1.2,0.6,1.8l-3.6,3.5
			c-0.2,0.2-0.4,0.6-0.3,0.9l0.8,5c0.1,0.9-0.8,1.5-1.5,1.1l-4.4-2.3c-0.3-0.2-0.7-0.2-1,0l-4.4,2.3c-0.8,0.4-1.7-0.3-1.5-1.1l0.8-5
			c0.1-0.3-0.1-0.7-0.3-0.9l-3.6-3.5c-0.6-0.6-0.3-1.7,0.6-1.8l5-0.7c0.3-0.1,0.6-0.3,0.8-0.6l2.2-4.5
			C324.7,388.6,325.8,388.6,326.2,389.4z"/>
		<path id="XMLID_19_" class="st5" d="M351.5,450.9l-52.3,0.1c-0.9,0-1.6-0.7-1.6-1.5l0-3.4L353,446l0,3.4
			C353,450.2,352.3,450.9,351.5,450.9z"/>
		<g>
			<g id="XMLID_52_">
				<path id="XMLID_53_" class="st22" d="M294.4,375.4l-7.8-7.9c-1.2,1.3-2,3-2.3,4.8l-3.2,19.2c-0.2,1.5,0.6,2.9,2,3.4l14.5,5.3
					l0-17.1C297.5,380.1,296.4,377.4,294.4,375.4z"/>
			</g>
			<path id="XMLID_51_" class="st5" d="M281.6,388.2l-0.5,3.2c-0.2,1.5,0.6,2.9,2,3.4l14.5,5.3l0-6.2L281.6,388.2z"/>
			<g id="XMLID_49_">
				<polygon id="XMLID_50_" class="st32" points="294.4,399 297.5,400.1 297.5,393.9 294.4,392.8 				"/>
			</g>
		</g>
	</g>
	<text transform="matrix(1 0 0 1 434.8592 376.4645)" class="st5 st11 st12">Gray T-Shirt XL</text>
	<text transform="matrix(1 0 0 1 434.8592 408.5277)" class="st5 st13 st14">TSHIRTB5B5B5XL</text>
	<text transform="matrix(1 0 0 1 434.8592 453.5277)" class="st5 st13 st14">129,00€</text>
	<g id="t-shirt-qty">
		<g id="qty-box">
			<path class="st15" d="M788.6,385.3c0,5.5-4.5,10-10,10h-80c-5.5,0-10-4.5-10-10v-30c0-5.5,4.5-10,10-10h80c5.5,0,10,4.5,10,10
				V385.3z"/>
		</g>
		<g id="dropdown">
			<path class="st20" d="M762.4,367.9c-0.3-0.3-0.7-0.3-0.9,0l-8.2,8.2l-8.2-8.2c-0.3-0.3-0.7-0.3-0.9,0c-0.3,0.3-0.3,0.7,0,0.9
				l8.7,8.7c0.1,0.1,0.3,0.2,0.5,0.2c0.2,0,0.3-0.1,0.5-0.2l8.7-8.7C762.6,368.6,762.6,368.2,762.4,367.9z"/>
		</g>
		<text id="_x31_" transform="matrix(1 0 0 1 717.0516 379.1186)" class="st5 st13 st14">2</text>
	</g>
	<text transform="matrix(1 0 0 1 838.8461 379.4643)" class="st5 st11 st12">258,00€</text>
	<g id="close-button-x">
		<circle class="st9" cx="1017.5" cy="370.1" r="20"/>
		<g>
			<line class="st9" x1="1010.4" y1="377.1" x2="1024.6" y2="363"/>
			<line class="st9" x1="1024.6" y1="377.1" x2="1010.4" y2="363"/>
		</g>
	</g>
</g>
<text transform="matrix(1 0 0 1 264.4502 298.1889)"><tspan x="0" y="0" class="st5 st11 st12">ORDER #1234 </tspan><tspan x="196.2" y="0" class="st5 st13 st12">(7 items)</tspan></text>
<text transform="matrix(1 0 0 1 265.4499 456.6056)" class="st34"><tspan x="0" y="0" class="st35 st13 st14">Your order: </tspan><tspan x="113.1" y="0" class="st35 st36 st14">4 </tspan><tspan x="131.2" y="0" class="st35 st13 st14">items</tspan></text>
<g id="mapping-numbers">
	<g id="_x31__3_">
		<circle class="st37" cx="424.4" cy="241.2" r="25"/>
		<text transform="matrix(1 0 0 1 415.3171 251.9684)" class="st15 st11 st12">1</text>
	</g>
	<g id="_x32__1_">
		<circle class="st37" cx="488.4" cy="241.2" r="25"/>
		<text transform="matrix(1 0 0 1 479.3516 251.9684)" class="st15 st11 st12">2</text>
	</g>
	<g id="_x33__1_">
		<circle class="st37" cx="250" cy="342.8" r="25"/>
		<text transform="matrix(1 0 0 1 240.9516 353.5673)" class="st15 st11 st12">3</text>
	</g>
	<g id="_x34__1_">
		<circle class="st37" cx="637.5" cy="321.6" r="25"/>
		<text transform="matrix(1 0 0 1 628.421 332.4035)" class="st15 st11 st12">4</text>
	</g>
	<g id="_x35__1_">
		<circle class="st37" cx="637.5" cy="429.8" r="25"/>
		<text transform="matrix(1 0 0 1 628.421 440.5372)" class="st15 st11 st12">5</text>
	</g>
	<g id="_x36__1_">
		<circle class="st37" cx="543.7" cy="469.7" r="25"/>
		<text transform="matrix(1 0 0 1 534.6614 480.4884)" class="st15 st11 st12">6</text>
	</g>
	<g id="_x37__1_">
		<circle class="st37" cx="792" cy="342.8" r="25"/>
		<text transform="matrix(1 0 0 1 783.903 353.5673)" class="st15 st11 st12">7</text>
	</g>
	<g id="_x38__1_">
		<circle class="st37" cx="908.4" cy="321.6" r="25"/>
		<text transform="matrix(1 0 0 1 900.3141 332.4035)" class="st15 st11 st12">8</text>
	</g>
	<g id="_x39__1_">
		<circle class="st37" cx="996.9" cy="1264.3" r="25"/>
		<text transform="matrix(1 0 0 1 988.8921 1275.0688)" class="st15 st11 st12">9</text>
	</g>
	<g id="_x31_0_1_">
		<circle class="st37" cx="996.9" cy="1321.8" r="25"/>
		<text transform="matrix(1 0 0 1 979.8922 1332.5631)" class="st15 st11 st12">10</text>
	</g>
	<g id="_x31_1_1_">
		<circle class="st37" cx="996.9" cy="1379.3" r="25"/>
		<text transform="matrix(1 0 0 1 980.8921 1390.0574)" class="st15 st11 st12">11</text>
	</g>
	<g id="_x31_2_1_">
		<circle class="st37" cx="996.9" cy="1436.8" r="25"/>
		<text transform="matrix(1 0 0 1 978.8921 1447.5516)" class="st15 st11 st12">12</text>
	</g>
	<g id="_x31_3_1_">
		<circle class="st37" cx="996.9" cy="1557.1" r="25"/>
		<text transform="matrix(1 0 0 1 978.8921 1567.8354)" class="st15 st11 st12">13</text>
	</g>
</g>
<g id="table-BKG_1_">
	<g id="table-BKG">
		<path class="st15" d="M2450.8,1682.7c0,11-9,20-20,20H1354c-11,0-20-9-20-20v-1526c0-11,9-20,20-20h1076.8c11,0,20,9,20,20V1682.7
			z"/>
	</g>
	<polygon class="st15" points="1334,993.4 1263.3,922.7 1334,852 	"/>
</g>
<g id="mapping-table">
	<text transform="matrix(1 0 0 1 1541.1991 260.4621)" class="st10 st11 st38">Type</text>
	<text transform="matrix(1 0 0 1 1725.2949 260.4621)" class="st10 st11 st38">Field</text>
	<g id="line-item">
		<g id="_x31__4_">
			<circle class="st37" cx="1465.8" cy="351.7" r="25"/>
			<text transform="matrix(1 0 0 1 1456.7639 362.4614)" class="st15 st11 st12">1</text>
		</g>
		<text transform="matrix(1 0 0 1 1541.1991 360.4613)" class="st5 st13 st12">orders</text>
		<text transform="matrix(1 0 0 1 1725.2949 360.4613)"><tspan x="0" y="0" class="st5 st13 st12">attributes.</tspan><tspan x="135.8" y="0" class="st5 st11 st12">number</tspan></text>
		<line id="product-line_2_" class="st9" x1="1541.2" y1="402.7" x2="2359.2" y2="402.7"/>
	</g>
	<line id="product-line_3_" class="st39" x1="1541.2" y1="302.1" x2="2359.2" y2="302.1"/>
	<g id="line-item_1_">
		<g id="_x31__6_">
			<circle class="st37" cx="1465.8" cy="451.7" r="25"/>
			<text transform="matrix(1 0 0 1 1456.7639 462.461)" class="st15 st11 st12">2</text>
		</g>
		<text transform="matrix(1 0 0 1 1541.1991 460.4609)" class="st5 st13 st12">orders</text>
		<text transform="matrix(1 0 0 1 1725.2949 460.4609)"><tspan x="0" y="0" class="st5 st13 st12">attributes.</tspan><tspan x="135.8" y="0" class="st5 st11 st12">skus_count</tspan></text>
		<line id="product-line_4_" class="st9" x1="1541.2" y1="502.7" x2="2359.2" y2="502.7"/>
	</g>
	<g id="line-item_2_">
		<g id="_x31__5_">
			<circle class="st37" cx="1465.8" cy="551.7" r="25"/>
			<text transform="matrix(1 0 0 1 1456.7639 562.461)" class="st15 st11 st12">3</text>
		</g>
		<text transform="matrix(1 0 0 1 1541.1991 560.4609)" class="st5 st13 st12">line_items</text>
		<text transform="matrix(1 0 0 1 1725.2949 560.4609)"><tspan x="0" y="0" class="st5 st13 st12">attributes.</tspan><tspan x="135.8" y="0" class="st5 st11 st12">image_url</tspan></text>
		<line id="product-line_5_" class="st9" x1="1541.2" y1="602.7" x2="2359.2" y2="602.7"/>
	</g>
	<g id="line-item_3_">
		<g id="_x31__7_">
			<circle class="st37" cx="1465.8" cy="651.7" r="25"/>
			<text transform="matrix(1 0 0 1 1456.7639 662.4609)" class="st15 st11 st12">4</text>
		</g>
		<text transform="matrix(1 0 0 1 1541.1991 660.4609)" class="st5 st13 st12">line_items</text>
		<text transform="matrix(1 0 0 1 1725.2949 660.4609)"><tspan x="0" y="0" class="st5 st13 st12">attributes.</tspan><tspan x="135.8" y="0" class="st5 st11 st12">name</tspan></text>
		<line id="product-line_6_" class="st9" x1="1541.2" y1="702.7" x2="2359.2" y2="702.7"/>
	</g>
	<g id="line-item_4_">
		<g id="_x31__8_">
			<circle class="st37" cx="1465.8" cy="751.7" r="25"/>
			<text transform="matrix(1 0 0 1 1456.7639 762.4609)" class="st15 st11 st12">5</text>
		</g>
		<text transform="matrix(1 0 0 1 1541.1991 760.4609)" class="st5 st13 st12">line_items</text>
		<text transform="matrix(1 0 0 1 1725.2949 760.4609)"><tspan x="0" y="0" class="st5 st13 st12">attributes.</tspan><tspan x="135.8" y="0" class="st5 st11 st12">sku_code</tspan></text>
		<line id="product-line_7_" class="st9" x1="1541.2" y1="802.7" x2="2359.2" y2="802.7"/>
	</g>
	<g id="line-item_5_">
		<g id="_x31__9_">
			<circle class="st37" cx="1465.8" cy="851.7" r="25"/>
			<text transform="matrix(1 0 0 1 1456.7639 862.461)" class="st15 st11 st12">6</text>
		</g>
		<text transform="matrix(1 0 0 1 1541.1991 860.4609)" class="st5 st13 st12">line_items</text>
		<text transform="matrix(1 0 0 1 1725.2949 860.4609)"><tspan x="0" y="0" class="st5 st13 st12">attributes.</tspan><tspan x="135.8" y="0" class="st5 st11 st12">formatted_unit_amount</tspan></text>
		<line id="product-line_8_" class="st9" x1="1541.2" y1="902.7" x2="2359.2" y2="902.7"/>
	</g>
	<g id="line-item_6_">
		<g id="_x31__10_">
			<circle class="st37" cx="1465.8" cy="951.7" r="25"/>
			<text transform="matrix(1 0 0 1 1456.7639 962.461)" class="st15 st11 st12">7</text>
		</g>
		<text transform="matrix(1 0 0 1 1541.1991 960.4609)" class="st5 st13 st12">line_items</text>
		<text transform="matrix(1 0 0 1 1725.2949 960.4609)"><tspan x="0" y="0" class="st5 st13 st12">attributes.</tspan><tspan x="135.8" y="0" class="st5 st11 st12">quantity</tspan></text>
		<line id="product-line_9_" class="st9" x1="1541.2" y1="1002.7" x2="2359.2" y2="1002.7"/>
	</g>
	<g id="line-item_7_">
		<g id="_x31__11_">
			<circle class="st37" cx="1465.8" cy="1051.7" r="25"/>
			<text transform="matrix(1 0 0 1 1456.7639 1062.4609)" class="st15 st11 st12">8</text>
		</g>
		<text transform="matrix(1 0 0 1 1541.1991 1060.4609)" class="st5 st13 st12">line_items</text>
		<text transform="matrix(1 0 0 1 1725.2949 1060.4609)"><tspan x="0" y="0" class="st5 st13 st12">attributes.</tspan><tspan x="135.8" y="0" class="st5 st11 st12">formatted_total_amount</tspan></text>
		<line id="product-line_10_" class="st9" x1="1541.2" y1="1102.7" x2="2359.2" y2="1102.7"/>
	</g>
	<g id="line-item_8_">
		<g id="_x31__12_">
			<circle class="st37" cx="1465.8" cy="1151.7" r="25"/>
			<text transform="matrix(1 0 0 1 1456.7639 1162.4609)" class="st15 st11 st12">9</text>
		</g>
		<text transform="matrix(1 0 0 1 1541.1991 1160.4609)" class="st5 st13 st12">orders</text>
		<text transform="matrix(1 0 0 1 1725.2949 1160.4609)"><tspan x="0" y="0" class="st5 st13 st12">attributes.</tspan><tspan x="135.8" y="0" class="st5 st11 st12">formatted_subtotal_amount</tspan></text>
		<line id="product-line_11_" class="st9" x1="1541.2" y1="1202.7" x2="2359.2" y2="1202.7"/>
	</g>
	<g id="line-item_9_">
		<g id="_x31__13_">
			<circle class="st37" cx="1465.8" cy="1251.7" r="25"/>
			<text transform="matrix(1 0 0 1 1448.7639 1262.4609)" class="st15 st11 st12">10</text>
		</g>
		<text transform="matrix(1 0 0 1 1541.1991 1260.4609)" class="st5 st13 st12">orders</text>
		<text transform="matrix(1 0 0 1 1725.2949 1260.4609)"><tspan x="0" y="0" class="st5 st13 st12">attributes.</tspan><tspan x="135.8" y="0" class="st5 st11 st12">formatted_discount_amount</tspan></text>
		<line id="product-line_12_" class="st9" x1="1541.2" y1="1302.7" x2="2359.2" y2="1302.7"/>
	</g>
	<g id="line-item_10_">
		<g id="_x31__14_">
			<circle class="st37" cx="1465.8" cy="1351.7" r="25"/>
			<text transform="matrix(1 0 0 1 1449.7639 1362.4608)" class="st15 st11 st12">11</text>
		</g>
		<text transform="matrix(1 0 0 1 1541.1991 1360.4609)" class="st5 st13 st12">orders</text>
		<text transform="matrix(1 0 0 1 1725.2949 1360.4609)"><tspan x="0" y="0" class="st5 st13 st12">attributes.</tspan><tspan x="135.8" y="0" class="st5 st11 st12">formatted_shipping_amount</tspan></text>
		<line id="product-line_13_" class="st9" x1="1541.2" y1="1402.7" x2="2359.2" y2="1402.7"/>
	</g>
	<g id="line-item_11_">
		<g id="_x31__15_">
			<circle class="st37" cx="1465.8" cy="1451.7" r="25"/>
			<text transform="matrix(1 0 0 1 1448.7639 1462.4608)" class="st15 st11 st12">12</text>
		</g>
		<text transform="matrix(1 0 0 1 1541.1991 1460.4609)" class="st5 st13 st12">orders</text>
		<text transform="matrix(1 0 0 1 1725.2949 1460.4609)"><tspan x="0" y="0" class="st5 st13 st12">attributes.</tspan><tspan x="135.8" y="0" class="st5 st11 st12">formatted_total_tax_amount</tspan></text>
		<line id="product-line_14_" class="st9" x1="1541.2" y1="1502.7" x2="2359.2" y2="1502.7"/>
	</g>
	<g id="line-item_12_">
		<g id="_x31__16_">
			<circle class="st37" cx="1465.8" cy="1551.7" r="25"/>
			<text transform="matrix(1 0 0 1 1448.7639 1562.4608)" class="st15 st11 st12">13</text>
		</g>
		<text transform="matrix(1 0 0 1 1541.1991 1560.4609)" class="st5 st13 st12">orders</text>
		<text transform="matrix(1 0 0 1 1725.2949 1560.4609)"><tspan x="0" y="0" class="st5 st13 st12">attributes.</tspan><tspan x="135.8" y="0" class="st5 st11 st12">formatted_total_amount_with_taxes</tspan></text>
		<line id="product-line_15_" class="st9" x1="1541.2" y1="1602.7" x2="2359.2" y2="1602.7"/>
	</g>
</g>
</svg>
